<?xml version="1.0" standalone="no"?>
<!DOCTYPE svg PUBLIC "-//W3C//DTD SVG 20010904//EN"
 "http://www.w3.org/TR/2001/REC-SVG-20010904/DTD/svg10.dtd">
<svg version="1.0" xmlns="http://www.w3.org/2000/svg"
 width="384.000000pt" height="384.000000pt" viewBox="0 0 384.000000 384.000000"
 preserveAspectRatio="xMidYMid meet">
<metadata>
Created by potrace 1.11, written by Peter Selinger 2001-2013
</metadata>
<g transform="translate(0.000000,384.000000) scale(0.100000,-0.100000)"
fill="#000000" stroke="none">
<path d="M99 3819 c-20 -9 -49 -34 -65 -54 l-29 -38 0 -1808 1 -1808 30 -38
c59 -73 -103 -67 1879 -68 1628 0 1792 1 1825 16 42 20 74 54 87 94 5 18 9
727 8 1822 l-1 1792 -30 38 c-59 73 103 67 -1879 68 -1638 0 -1792 -1 -1826
-16z"/>
</g>
</svg>
